<svg xmlns="http://www.w3.org/2000/svg" viewBox="0 0 500 500"><g id="freepik--Window--inject-144"><g id="freepik--window--inject-144"><path d="M366.2,45.32V269.61a10.29,10.29,0,0,1-4.66,8.07L232.69,352a2.89,2.89,0,0,1-1.54.44,3.07,3.07,0,0,1-.6-.07,1.9,1.9,0,0,1-.4-.14l-.24-.14-.28-.18a2.85,2.85,0,0,1-.26-.23,3.77,3.77,0,0,1-.85-1.22,5.79,5.79,0,0,1-.49-2.36V125a10.3,10.3,0,0,1,4.66-8.07L361.54,42.63a3.38,3.38,0,0,1,3.13-.39,1.6,1.6,0,0,1,.4.23l0,0a1.47,1.47,0,0,1,.31.3,1.15,1.15,0,0,1,.14.17.87.87,0,0,1,.15.24,2.3,2.3,0,0,1,.27.6,1.3,1.3,0,0,1,.11.41.1.1,0,0,1,0,.09,2,2,0,0,1,.07.43A5.63,5.63,0,0,1,366.2,45.32Z" style="fill:#455a64"></path><path d="M364.67,42.24a3.38,3.38,0,0,0-3.13.39L232.69,116.9A10.3,10.3,0,0,0,228,125V140.2l-5.95-3.49V121.59a10.27,10.27,0,0,1,4.65-8L355.59,39.27A3.27,3.27,0,0,1,359,39C359.81,39.5,363.68,41.72,364.67,42.24Z" style="fill:#4458DC"></path><path d="M366.19,45.29c0-2.94-2.09-4.13-4.65-2.65L232.69,116.9A10.32,10.32,0,0,0,228,125V140.2L366.19,60.58Z" style="fill:#4458DC"></path><g style="opacity:0.4"><path d="M361.54,42.64,232.69,116.9a9.69,9.69,0,0,0-3.28,3.46l-5.91-3.43a9.32,9.32,0,0,1,3.24-3.4L355.59,39.27A3.27,3.27,0,0,1,359,39c.84.51,4.71,2.71,5.69,3.24A3.35,3.35,0,0,0,361.54,42.64Z" style="fill:#fff"></path></g><path d="M222.07,136.73V121.59a9.55,9.55,0,0,1,1.42-4.66l5.93,3.41A9.37,9.37,0,0,0,228,125V140.2Z" style="opacity:0.15"></path><path d="M338.14,62.63c-1.45.84-2.63,3.34-2.63,5.57s1.18,3.38,2.63,2.54,2.63-3.34,2.63-5.57S339.59,61.79,338.14,62.63Z" style="fill:#455a64"></path><path d="M347.61,57.15c-1.45.84-2.63,3.34-2.63,5.57s1.18,3.38,2.63,2.54,2.63-3.34,2.63-5.57S349.07,56.31,347.61,57.15Z" style="fill:#455a64"></path><path d="M357.09,51.67c-1.46.84-2.63,3.34-2.63,5.57s1.17,3.38,2.63,2.54,2.63-3.34,2.63-5.57S358.54,50.84,357.09,51.67Z" style="fill:#455a64"></path><path d="M229.74,352c-.17-.11-.37-.22-.58-.34-.43-.26-.92-.54-1.44-.81v0l-.78-.44-.06,0c-.43-.24-.84-.49-1.23-.7l-1-.58a6.19,6.19,0,0,0-.58-.32,2.73,2.73,0,0,1-.8-.65,3.49,3.49,0,0,1-.62-.94,5.75,5.75,0,0,1-.54-2.47v-208L228,140.2V348.12a6.75,6.75,0,0,0,.49,2.36,3.77,3.77,0,0,0,.85,1.22.83.83,0,0,0,.26.23A.38.38,0,0,0,229.74,352Z" style="fill:#37474f"></path><path d="M239.47,152.85a1.85,1.85,0,0,1,.24-.87l3.35-6.93a.49.49,0,0,1,.15-.2s.07-.06.09-.06a.19.19,0,0,1,.26,0,.46.46,0,0,1,.11.34v2.32a2.81,2.81,0,0,1-.07.72,2.71,2.71,0,0,1-.24.64l-1.76,3.66,1.76,1.62a.82.82,0,0,1,.24.36,2,2,0,0,1,.07.64v2.33a1.15,1.15,0,0,1-.11.47.73.73,0,0,1-.26.32l-.09,0a.17.17,0,0,1-.15,0l-3.35-3.07a.67.67,0,0,1-.24-.59Z" style="fill:#4458DC"></path><path d="M251.72,135.47a3.37,3.37,0,0,1,.26-.68,1.15,1.15,0,0,1,.49-.53l1.26-.73a.2.2,0,0,1,.26,0,.48.48,0,0,1,.11.34,1.38,1.38,0,0,1,0,.26l-5.75,24.47a2.9,2.9,0,0,1-.23.66,1.32,1.32,0,0,1-.51.56l-1.21.7a.2.2,0,0,1-.26,0,.44.44,0,0,1-.11-.34,1.38,1.38,0,0,1,0-.26Z" style="fill:#4458DC"></path><path d="M260.61,142.38a1.85,1.85,0,0,1-.24.87L257,150.18a.6.6,0,0,1-.15.2c-.05,0-.07.06-.09.06a.2.2,0,0,1-.26,0,.51.51,0,0,1-.11-.35v-2.32a2.81,2.81,0,0,1,.07-.72,2.71,2.71,0,0,1,.24-.64l1.76-3.66-1.76-1.62a.82.82,0,0,1-.24-.36,2,2,0,0,1-.07-.64v-2.33a1.15,1.15,0,0,1,.11-.47.73.73,0,0,1,.26-.32l.09,0a.21.21,0,0,1,.15,0l3.35,3.07a.67.67,0,0,1,.24.59Z" style="fill:#4458DC"></path><path d="M269.92,140.77a.25.25,0,0,1,.32,0,.57.57,0,0,1,.14.42v2.56a1.34,1.34,0,0,1-.14.58.86.86,0,0,1-.32.39l-1.58.92a.25.25,0,0,1-.33,0,.53.53,0,0,1-.13-.41v-2.57a1.31,1.31,0,0,1,.13-.57.85.85,0,0,1,.33-.4Z" style="fill:#4458DC"></path><path d="M275.2,137.72a.24.24,0,0,1,.32,0,.53.53,0,0,1,.14.42v2.56a1.21,1.21,0,0,1-.14.58.81.81,0,0,1-.32.39l-1.58.92a.24.24,0,0,1-.32,0,.54.54,0,0,1-.14-.42V139.6a1.33,1.33,0,0,1,.14-.57.84.84,0,0,1,.32-.4Z" style="fill:#4458DC"></path><path d="M280.48,134.67a.25.25,0,0,1,.33,0,.57.57,0,0,1,.13.42v2.56a1.33,1.33,0,0,1-.13.58.82.82,0,0,1-.33.39l-1.58.92a.24.24,0,0,1-.32,0,.54.54,0,0,1-.13-.42v-2.56a1.31,1.31,0,0,1,.13-.57.84.84,0,0,1,.32-.4Z" style="fill:#4458DC"></path><path d="M240.88,171.54l77.42-44.69c.91-.53,1.66-.16,1.66.83a3.57,3.57,0,0,1-1.66,2.75l-77.42,44.7c-.91.53-1.65.15-1.65-.84A3.56,3.56,0,0,1,240.88,171.54Z" style="fill:#4458DC"></path><path d="M265.72,200.23l77.42-44.7c.91-.53,1.66-.15,1.66.84a3.54,3.54,0,0,1-1.66,2.74l-77.42,44.7c-.91.53-1.65.15-1.65-.84A3.53,3.53,0,0,1,265.72,200.23Z" style="fill:#fff"></path><path d="M265.72,228.91l37.06-21.38c.91-.53,1.65-.15,1.65.84a3.56,3.56,0,0,1-1.65,2.75l-37.06,21.37c-.91.53-1.65.16-1.65-.83A3.56,3.56,0,0,1,265.72,228.91Z" style="fill:#e0e0e0"></path><path d="M324.72,123.14l30.84-17.87c.91-.53,1.65-.15,1.65.84a3.53,3.53,0,0,1-1.65,2.74l-30.84,17.88c-.92.53-1.66.15-1.66-.84A3.55,3.55,0,0,1,324.72,123.14Z" style="fill:#4458DC"></path><path d="M240.88,329.28l77.42-44.7c.91-.52,1.66-.15,1.66.84a3.57,3.57,0,0,1-1.66,2.75l-77.42,44.7c-.91.52-1.65.15-1.65-.84A3.56,3.56,0,0,1,240.88,329.28Z" style="fill:#4458DC"></path><path d="M324.72,280.88,355.56,263c.91-.53,1.65-.16,1.65.83a3.56,3.56,0,0,1-1.65,2.75l-30.84,17.87c-.92.53-1.66.16-1.66-.83A3.55,3.55,0,0,1,324.72,280.88Z" style="fill:#4458DC"></path><path d="M324.72,237.93l30.84-17.87c.91-.53,1.65-.15,1.65.84a3.56,3.56,0,0,1-1.65,2.75l-30.84,17.87c-.92.53-1.66.15-1.66-.84A3.55,3.55,0,0,1,324.72,237.93Z" style="fill:#4458DC"></path><path d="M324.72,252.27l30.84-17.87c.91-.53,1.65-.16,1.65.83a3.56,3.56,0,0,1-1.65,2.75l-30.84,17.88c-.92.52-1.66.15-1.66-.84A3.55,3.55,0,0,1,324.72,252.27Z" style="fill:#4458DC"></path><path d="M298.42,253.07l17.32-10c.92-.53,1.66-.15,1.66.84a3.55,3.55,0,0,1-1.66,2.75l-17.32,10c-.92.53-1.66.15-1.66-.84A3.55,3.55,0,0,1,298.42,253.07Z" style="fill:#4458DC"></path><path d="M240.88,185.92,286,159.83c.91-.53,1.65-.15,1.65.83a3.55,3.55,0,0,1-1.65,2.75L240.88,189.5c-.91.53-1.65.16-1.65-.83A3.56,3.56,0,0,1,240.88,185.92Z" style="fill:#4458DC"></path><path d="M240.88,185.92,286,159.83c.91-.53,1.65-.15,1.65.83a3.55,3.55,0,0,1-1.65,2.75L240.88,189.5c-.91.53-1.65.16-1.65-.83A3.56,3.56,0,0,1,240.88,185.92Z" style="fill:#fff;opacity:0.6000000000000001"></path><path d="M240.88,200.23l15.32-8.85c.92-.53,1.66-.16,1.66.83A3.55,3.55,0,0,1,256.2,195l-15.32,8.86c-.91.52-1.65.15-1.65-.84A3.56,3.56,0,0,1,240.88,200.23Z" style="fill:#4458DC"></path><path d="M240.88,200.23l15.32-8.85c.92-.53,1.66-.16,1.66.83A3.55,3.55,0,0,1,256.2,195l-15.32,8.86c-.91.52-1.65.15-1.65-.84A3.56,3.56,0,0,1,240.88,200.23Z" style="fill:#fff;opacity:0.6000000000000001"></path><path d="M240.88,214.57l15.32-8.85c.92-.53,1.66-.16,1.66.83a3.55,3.55,0,0,1-1.66,2.75l-15.32,8.86c-.91.53-1.65.15-1.65-.84A3.56,3.56,0,0,1,240.88,214.57Z" style="fill:#4458DC"></path><path d="M240.88,214.57l15.32-8.85c.92-.53,1.66-.16,1.66.83a3.55,3.55,0,0,1-1.66,2.75l-15.32,8.86c-.91.53-1.65.15-1.65-.84A3.56,3.56,0,0,1,240.88,214.57Z" style="fill:#fff;opacity:0.6000000000000001"></path><path d="M240.88,228.91l15.32-8.85c.92-.53,1.66-.16,1.66.83a3.55,3.55,0,0,1-1.66,2.75l-15.32,8.86c-.91.53-1.65.15-1.65-.84A3.56,3.56,0,0,1,240.88,228.91Z" style="fill:#4458DC"></path><path d="M240.88,228.91l15.32-8.86c.92-.53,1.66-.15,1.66.84a3.55,3.55,0,0,1-1.66,2.75l-15.32,8.85c-.91.53-1.65.16-1.65-.83A3.56,3.56,0,0,1,240.88,228.91Z" style="fill:#fff;opacity:0.6000000000000001"></path><path d="M265.72,214.57l45.16-26.09c.91-.53,1.65-.16,1.65.83a3.56,3.56,0,0,1-1.65,2.75l-45.16,26.09c-.91.53-1.65.16-1.65-.83A3.55,3.55,0,0,1,265.72,214.57Z" style="fill:#4458DC"></path><path d="M317.29,184.77l19.64-11.3c.91-.53,1.65-.15,1.65.84a3.56,3.56,0,0,1-1.65,2.75l-19.64,11.3c-.91.53-1.65.15-1.65-.84A3.56,3.56,0,0,1,317.29,184.77Z" style="fill:#4458DC"></path><path d="M240.88,243.25l15.32-8.85c.92-.53,1.66-.16,1.66.83A3.55,3.55,0,0,1,256.2,238l-15.32,8.86c-.91.53-1.65.15-1.65-.84A3.56,3.56,0,0,1,240.88,243.25Z" style="fill:#4458DC"></path><path d="M240.88,243.25l15.32-8.85c.92-.53,1.66-.16,1.66.83A3.55,3.55,0,0,1,256.2,238l-15.32,8.86c-.91.53-1.65.15-1.65-.84A3.56,3.56,0,0,1,240.88,243.25Z" style="fill:#fff;opacity:0.6000000000000001"></path><path d="M292.45,156.12l19.64-11.3c.91-.52,1.66-.15,1.66.84a3.57,3.57,0,0,1-1.66,2.75l-19.64,11.3c-.91.53-1.65.15-1.65-.84A3.56,3.56,0,0,1,292.45,156.12Z" style="fill:#4458DC"></path><path d="M292.45,156.12l19.64-11.3c.91-.52,1.66-.15,1.66.84a3.57,3.57,0,0,1-1.66,2.75l-19.64,11.3c-.91.53-1.65.15-1.65-.84A3.56,3.56,0,0,1,292.45,156.12Z" style="fill:#fff;opacity:0.6000000000000001"></path><path d="M284.35,232.47l45.16-26.09c.91-.53,1.65-.15,1.65.84a3.56,3.56,0,0,1-1.65,2.75l-45.16,26.09c-.91.52-1.65.15-1.65-.84A3.56,3.56,0,0,1,284.35,232.47Z" style="fill:#e0e0e0"></path><path d="M310.4,231.83l45.16-26.09c.91-.53,1.66-.15,1.66.84a3.54,3.54,0,0,1-1.66,2.74L310.4,235.41c-.91.53-1.65.16-1.65-.83A3.56,3.56,0,0,1,310.4,231.83Z" style="fill:#fff"></path><path d="M335.92,202.68l19.64-11.3c.91-.53,1.65-.16,1.65.83a3.56,3.56,0,0,1-1.65,2.75l-19.64,11.3c-.91.53-1.65.16-1.65-.83A3.55,3.55,0,0,1,335.92,202.68Z" style="fill:#e0e0e0"></path><path d="M335.92,259.48l19.64-11.3c.91-.53,1.65-.16,1.65.83a3.56,3.56,0,0,1-1.65,2.75l-19.64,11.3c-.91.53-1.65.15-1.65-.84A3.53,3.53,0,0,1,335.92,259.48Z" style="fill:#e0e0e0"></path><path d="M265.72,185.89l45.16-26.09c.91-.53,1.65-.15,1.65.84a3.56,3.56,0,0,1-1.65,2.75l-45.16,26.09c-.91.52-1.65.15-1.65-.84A3.56,3.56,0,0,1,265.72,185.89Z" style="fill:#4458DC"></path><path d="M265.72,185.89l45.16-26.09c.91-.53,1.65-.15,1.65.84a3.56,3.56,0,0,1-1.65,2.75l-45.16,26.09c-.91.52-1.65.15-1.65-.84A3.56,3.56,0,0,1,265.72,185.89Z" style="fill:#fff;opacity:0.6000000000000001"></path><path d="M317.29,156.1l19.64-11.3c.91-.53,1.65-.16,1.65.83a3.56,3.56,0,0,1-1.65,2.75l-19.64,11.3c-.91.53-1.65.16-1.65-.83A3.53,3.53,0,0,1,317.29,156.1Z" style="fill:#4458DC"></path><path d="M317.29,156.1l19.64-11.3c.91-.53,1.65-.16,1.65.83a3.56,3.56,0,0,1-1.65,2.75l-19.64,11.3c-.91.53-1.65.16-1.65-.83A3.53,3.53,0,0,1,317.29,156.1Z" style="fill:#fff;opacity:0.6000000000000001"></path><path d="M265.72,214.57l45.16-26.09c.91-.53,1.65-.16,1.65.83a3.56,3.56,0,0,1-1.65,2.75l-45.16,26.09c-.91.53-1.65.16-1.65-.83A3.55,3.55,0,0,1,265.72,214.57Z" style="fill:#fff;opacity:0.6000000000000001"></path><path d="M317.29,184.77l19.64-11.3c.91-.53,1.65-.15,1.65.84a3.56,3.56,0,0,1-1.65,2.75l-19.64,11.3c-.91.53-1.65.15-1.65-.84A3.56,3.56,0,0,1,317.29,184.77Z" style="fill:#fff;opacity:0.6000000000000001"></path></g></g><g id="freepik--Icons--inject-144"><g id="freepik--Java--inject-144"><path d="M419.89,64l-10.77,6.17-10.83-1a.76.76,0,0,0-.37.06c.87-.51,10.31-5.91,10.7-6.12a.68.68,0,0,1,.45-.09Z" style="fill:#4458DC"></path><path d="M419.89,64l-10.77,6.17-10.83-1a.76.76,0,0,0-.37.06c.87-.51,10.31-5.91,10.7-6.12a.68.68,0,0,1,.45-.09Z" style="fill:#fff;opacity:0.5"></path><polygon points="453.36 66.16 414.42 43.67 406.68 48.17 409.53 105.95 426.15 125.63 442.77 125.14 450.51 120.64 453.36 66.16" style="fill:#4458DC"></polygon><polygon points="453.36 66.16 445.63 70.66 406.68 48.17 414.42 43.67 453.36 66.16" style="fill:#fff;opacity:0.5"></polygon><polygon points="453.36 66.16 445.63 70.66 442.77 125.14 450.51 120.64 453.36 66.16" style="opacity:0.15"></polygon><path d="M406.68,48.17l1.08,21.88-9.46-.83a.8.8,0,0,0-.66,1.33l10.72,11.61L409.53,106l16.62,19.68,16.62-.49,2.86-54.48Z" style="fill:#4458DC"></path><polygon points="426.15 65.05 441.63 73.98 439.35 118.8 426.15 119.78 426.15 65.05" style="fill:#fff;opacity:0.5"></polygon><polygon points="437.95 76.26 436.32 112.97 426.15 113.55 415.99 101.23 415.47 90.86 419.15 92.98 419.45 99.17 426.15 107.56 432.85 106.9 433.99 79.61 414.65 68.44 414.36 62.64 437.95 76.26" style="fill:#fff"></polygon></g><g id="freepik--CSS--inject-144"><path d="M419.89,156.26l-10.77,6.17-10.83-1a.9.9,0,0,0-.37.05c.87-.51,10.31-5.91,10.7-6.12a.75.75,0,0,1,.45-.09Z" style="fill:#4458DC"></path><polygon points="453.36 158.42 414.42 135.93 406.68 140.43 409.53 198.21 426.15 217.89 442.77 217.4 450.51 212.9 453.36 158.42" style="fill:#4458DC"></polygon><polygon points="453.36 158.42 445.63 162.91 442.77 217.4 450.51 212.9 453.36 158.42" style="opacity:0.35000000000000003"></polygon><path d="M406.68,140.43l1.08,21.87-9.46-.82a.8.8,0,0,0-.66,1.33l10.72,11.61,1.17,23.79,16.62,19.68,16.62-.49,2.86-54.49Z" style="fill:#4458DC"></path><path d="M406.68,140.43l1.08,21.87-9.46-.82a.8.8,0,0,0-.66,1.33l10.72,11.61,1.17,23.79,16.62,19.68,16.62-.49,2.86-54.49Z" style="opacity:0.25"></path><polygon points="426.15 157.3 441.63 166.24 439.35 211.05 426.15 212.04 426.15 157.3" style="fill:#4458DC;opacity:0.7000000000000001"></polygon><polygon points="414.36 154.9 414.6 160.67 433.99 171.86 433.52 183.24 415.11 172.61 415.35 178.38 433.29 188.74 432.85 199.16 426.15 199.82 419.45 191.42 419.15 185.24 415.47 183.12 415.99 193.49 426.15 205.81 436.32 205.23 437.95 168.51 414.36 154.9" style="fill:#fff"></polygon></g><g id="freepik--HTML--inject-144"><polygon points="453.36 250.66 414.42 228.18 406.68 232.67 409.53 290.45 426.15 310.13 442.77 309.64 450.51 305.14 453.36 250.66" style="fill:#4458DC"></polygon><polygon points="453.36 250.66 445.63 255.16 406.68 232.67 414.42 228.18 453.36 250.66" style="opacity:0.25"></polygon><polygon points="453.36 250.66 445.63 255.16 442.77 309.64 450.51 305.14 453.36 250.66" style="opacity:0.55"></polygon><path d="M419.89,248.5l-10.77,6.17-10.83-.95a.76.76,0,0,0-.37.06c.87-.51,10.31-5.92,10.7-6.13a.83.83,0,0,1,.45-.09Z" style="fill:#4458DC"></path><path d="M419.89,248.5l-10.77,6.17-10.83-.95a.76.76,0,0,0-.37.06c.87-.51,10.31-5.92,10.7-6.13a.83.83,0,0,1,.45-.09Z" style="opacity:0.25"></path><path d="M406.68,232.67l1.08,21.88-9.46-.83a.8.8,0,0,0-.66,1.33l10.72,11.61,1.17,23.79,16.62,19.68,16.62-.49,2.86-54.48Z" style="fill:#4458DC"></path><path d="M406.68,232.67l1.08,21.88-9.46-.83a.8.8,0,0,0-.66,1.33l10.72,11.61,1.17,23.79,16.62,19.68,16.62-.49,2.86-54.48Z" style="opacity:0.4"></path><polygon points="426.15 249.55 441.63 258.48 439.35 303.3 426.15 304.28 426.15 249.55" style="fill:#4458DC;opacity:0.5"></polygon><polygon points="437.95 260.76 414.36 247.14 415.35 270.63 433.29 280.98 432.85 291.41 426.15 292.06 419.45 283.67 419.15 277.48 415.47 275.36 415.99 285.74 426.15 298.05 436.32 297.47 437.19 277.6 418.79 266.98 418.31 255.06 437.66 266.23 437.95 260.76" style="fill:#fff"></polygon></g></g></svg>